<?xml version="1.0" encoding="UTF-8" standalone="no"?>
<!DOCTYPE svg PUBLIC "-//W3C//DTD SVG 1.1//EN"
 "http://www.w3.org/Graphics/SVG/1.1/DTD/svg11.dtd">
<!-- Generated by graphviz version 2.43.0 (0)
 -->
<!-- Title: agents_module_architecture Pages: 1 -->
<svg width="1535pt" height="403pt"
 viewBox="0.00 0.00 1534.70 403.20" xmlns="http://www.w3.org/2000/svg" xmlns:xlink="http://www.w3.org/1999/xlink">
<g id="graph0" class="graph" transform="scale(1 1) rotate(0) translate(21.6 381.6)">
<title>agents_module_architecture</title>
<polygon fill="#0d1117" stroke="transparent" points="-21.6,21.6 -21.6,-381.6 1513.1,-381.6 1513.1,21.6 -21.6,21.6"/>
<text text-anchor="middle" x="745.75" y="-340" font-family="Helvetica,sans-Serif" font-size="20.00" fill="#e6f1ff">Hermes Agent — module / file dependency map &#160;(dev guide)</text>
<g id="clust1" class="cluster">
<title>cluster_top</title>
<path fill="#11161d" stroke="#ff2bd6" d="M270,-249C270,-249 825,-249 825,-249 831,-249 837,-255 837,-261 837,-261 837,-310 837,-310 837,-316 831,-322 825,-322 825,-322 270,-322 270,-322 264,-322 258,-316 258,-310 258,-310 258,-261 258,-261 258,-255 264,-249 270,-249"/>
<text text-anchor="middle" x="547.5" y="-256.4" font-family="Helvetica,sans-Serif" font-size="12.00" fill="#ff2bd6">entry points / consumers</text>
</g>
<g id="clust2" class="cluster">
<title>cluster_agent</title>
<path fill="#11161d" stroke="#b388ff" d="M176,-142C176,-142 780,-142 780,-142 786,-142 792,-148 792,-154 792,-154 792,-203 792,-203 792,-209 786,-215 780,-215 780,-215 176,-215 176,-215 170,-215 164,-209 164,-203 164,-203 164,-154 164,-154 164,-148 170,-142 176,-142"/>
<text text-anchor="middle" x="478" y="-149.4" font-family="Helvetica,sans-Serif" font-size="12.00" fill="#b388ff">agent/ &#160;(internals)</text>
</g>
<g id="clust3" class="cluster">
<title>cluster_cli</title>
<path fill="#11161d" stroke="#ff9f1c" d="M814,-142C814,-142 1301,-142 1301,-142 1307,-142 1313,-148 1313,-154 1313,-154 1313,-203 1313,-203 1313,-209 1307,-215 1301,-215 1301,-215 814,-215 814,-215 808,-215 802,-209 802,-203 802,-203 802,-154 802,-154 802,-148 808,-142 814,-142"/>
<text text-anchor="middle" x="1057.5" y="-149.4" font-family="Helvetica,sans-Serif" font-size="12.00" fill="#ff9f1c">hermes_cli/ &#160;(subcommands)</text>
</g>
<!-- registry -->
<g id="node1" class="node">
<title>registry</title>
<path fill="#161b22" stroke="#39ff14" stroke-width="1.6" d="M156,-36C156,-36 12,-36 12,-36 6,-36 0,-30 0,-24 0,-24 0,-12 0,-12 0,-6 6,0 12,0 12,0 156,0 156,0 162,0 168,-6 168,-12 168,-12 168,-24 168,-24 168,-30 162,-36 156,-36"/>
<text text-anchor="middle" x="84" y="-21.2" font-family="Helvetica,sans-Serif" font-size="11.00" fill="#39ff14">tools/registry.py</text>
<text text-anchor="middle" x="84" y="-9.2" font-family="Helvetica,sans-Serif" font-size="11.00" fill="#39ff14">(no deps — register() at import)</text>
</g>
<!-- tools -->
<g id="node2" class="node">
<title>tools</title>
<path fill="#161b22" stroke="#39ff14" stroke-width="1.6" d="M146.5,-113C146.5,-113 21.5,-113 21.5,-113 15.5,-113 9.5,-107 9.5,-101 9.5,-101 9.5,-89 9.5,-89 9.5,-83 15.5,-77 21.5,-77 21.5,-77 146.5,-77 146.5,-77 152.5,-77 158.5,-83 158.5,-89 158.5,-89 158.5,-101 158.5,-101 158.5,-107 152.5,-113 146.5,-113"/>
<text text-anchor="middle" x="84" y="-98.2" font-family="Helvetica,sans-Serif" font-size="11.00" fill="#39ff14">tools/*.py</text>
<text text-anchor="middle" x="84" y="-86.2" font-family="Helvetica,sans-Serif" font-size="11.00" fill="#39ff14">each calls registry.register()</text>
</g>
<!-- registry&#45;&gt;tools -->
<g id="edge1" class="edge">
<title>registry&#45;&gt;tools</title>
<path fill="none" stroke="#39ff14" stroke-width="1.3" d="M84,-36.02C84,-45.06 84,-56.4 84,-66.65"/>
<polygon fill="#39ff14" stroke="#39ff14" stroke-width="1.3" points="80.5,-66.79 84,-76.79 87.5,-66.79 80.5,-66.79"/>
</g>
<!-- modeltools -->
<g id="node3" class="node">
<title>modeltools</title>
<path fill="#161b22" stroke="#f5d90a" stroke-width="1.6" d="M135,-211C135,-211 33,-211 33,-211 27,-211 21,-205 21,-199 21,-199 21,-179 21,-179 21,-173 27,-167 33,-167 33,-167 135,-167 135,-167 141,-167 147,-173 147,-179 147,-179 147,-199 147,-199 147,-205 141,-211 135,-211"/>
<text text-anchor="middle" x="84" y="-198.2" font-family="Helvetica,sans-Serif" font-size="11.00" fill="#f5d90a">model_tools.py</text>
<text text-anchor="middle" x="84" y="-186.2" font-family="Helvetica,sans-Serif" font-size="11.00" fill="#f5d90a">discover_builtin_tools()</text>
<text text-anchor="middle" x="84" y="-174.2" font-family="Helvetica,sans-Serif" font-size="11.00" fill="#f5d90a">handle_function_call()</text>
</g>
<!-- tools&#45;&gt;modeltools -->
<g id="edge2" class="edge">
<title>tools&#45;&gt;modeltools</title>
<path fill="none" stroke="#39ff14" stroke-width="1.3" d="M84,-113.3C84,-125.53 84,-142.27 84,-156.8"/>
<polygon fill="#39ff14" stroke="#39ff14" stroke-width="1.3" points="80.5,-156.9 84,-166.9 87.5,-156.9 80.5,-156.9"/>
</g>
<!-- runagent -->
<g id="node4" class="node">
<title>runagent</title>
<path fill="#161b22" stroke="#ff2bd6" stroke-width="1.6" d="M597.5,-314C597.5,-314 506.5,-314 506.5,-314 500.5,-314 494.5,-308 494.5,-302 494.5,-302 494.5,-290 494.5,-290 494.5,-284 500.5,-278 506.5,-278 506.5,-278 597.5,-278 597.5,-278 603.5,-278 609.5,-284 609.5,-290 609.5,-290 609.5,-302 609.5,-302 609.5,-308 603.5,-314 597.5,-314"/>
<text text-anchor="middle" x="552" y="-299.2" font-family="Helvetica,sans-Serif" font-size="11.00" fill="#ff2bd6">run_agent.py</text>
<text text-anchor="middle" x="552" y="-287.2" font-family="Helvetica,sans-Serif" font-size="11.00" fill="#ff2bd6">AIAgent — turn loop</text>
</g>
<!-- modeltools&#45;&gt;runagent -->
<g id="edge3" class="edge">
<title>modeltools&#45;&gt;runagent</title>
<path fill="none" stroke="#39ff14" stroke-width="1.3" d="M143.09,-211.04C148.1,-212.49 153.12,-213.84 158,-215 207.35,-226.72 221.03,-222.27 271,-231 292.47,-234.75 297.38,-238.24 319,-241 354.97,-245.6 447.52,-237.76 482,-249 497.02,-253.9 511.9,-262.92 524.05,-271.69"/>
<polygon fill="#39ff14" stroke="#39ff14" stroke-width="1.3" points="522.28,-274.74 532.38,-277.96 526.5,-269.15 522.28,-274.74"/>
</g>
<!-- cli -->
<g id="node5" class="node">
<title>cli</title>
<path fill="#161b22" stroke="#ff2bd6" stroke-width="1.6" d="M817,-314C817,-314 671,-314 671,-314 665,-314 659,-308 659,-302 659,-302 659,-290 659,-290 659,-284 665,-278 671,-278 671,-278 817,-278 817,-278 823,-278 829,-284 829,-290 829,-290 829,-302 829,-302 829,-308 823,-314 817,-314"/>
<text text-anchor="middle" x="744" y="-299.2" font-family="Helvetica,sans-Serif" font-size="11.00" fill="#ff2bd6">cli.py</text>
<text text-anchor="middle" x="744" y="-287.2" font-family="Helvetica,sans-Serif" font-size="11.00" fill="#ff2bd6">HermesCLI · prompt_toolkit TUI</text>
</g>
<!-- modeltools&#45;&gt;cli -->
<g id="edge4" class="edge">
<title>modeltools&#45;&gt;cli</title>
<path fill="none" stroke="#39ff14" stroke-width="1.3" d="M141.79,-211.06C147.22,-212.58 152.68,-213.93 158,-215 259.34,-235.49 521.03,-226.76 622,-249 647.82,-254.69 675.48,-264.76 697.92,-274.04"/>
<polygon fill="#39ff14" stroke="#39ff14" stroke-width="1.3" points="696.63,-277.29 707.2,-277.95 699.35,-270.84 696.63,-277.29"/>
</g>
<!-- batch -->
<g id="node6" class="node">
<title>batch</title>
<path fill="#161b22" stroke="#ff2bd6" stroke-width="1.6" d="M348,-314C348,-314 278,-314 278,-314 272,-314 266,-308 266,-302 266,-302 266,-290 266,-290 266,-284 272,-278 278,-278 278,-278 348,-278 348,-278 354,-278 360,-284 360,-290 360,-290 360,-302 360,-302 360,-308 354,-314 348,-314"/>
<text text-anchor="middle" x="313" y="-293.2" font-family="Helvetica,sans-Serif" font-size="11.00" fill="#ff2bd6">batch_runner.py</text>
</g>
<!-- modeltools&#45;&gt;batch -->
<g id="edge5" class="edge">
<title>modeltools&#45;&gt;batch</title>
<path fill="none" stroke="#39ff14" stroke-width="1.3" d="M130.07,-211.12C169.73,-229.31 226.69,-255.43 266.48,-273.67"/>
<polygon fill="#39ff14" stroke="#39ff14" stroke-width="1.3" points="265.15,-276.91 275.7,-277.9 268.07,-270.55 265.15,-276.91"/>
</g>
<!-- envs -->
<g id="node7" class="node">
<title>envs</title>
<path fill="#161b22" stroke="#ff2bd6" stroke-width="1.6" d="M457,-314C457,-314 397,-314 397,-314 391,-314 385,-308 385,-302 385,-302 385,-290 385,-290 385,-284 391,-278 397,-278 397,-278 457,-278 457,-278 463,-278 469,-284 469,-290 469,-290 469,-302 469,-302 469,-308 463,-314 457,-314"/>
<text text-anchor="middle" x="427" y="-293.2" font-family="Helvetica,sans-Serif" font-size="11.00" fill="#ff2bd6">environments/</text>
</g>
<!-- modeltools&#45;&gt;envs -->
<g id="edge6" class="edge">
<title>modeltools&#45;&gt;envs</title>
<path fill="none" stroke="#39ff14" stroke-width="1.3" d="M144.4,-211.05C148.98,-212.45 153.55,-213.78 158,-215 211.89,-229.74 225.73,-232.79 281,-241 321.6,-247.03 335.14,-233.16 373,-249 384.78,-253.93 395.87,-262.4 404.9,-270.75"/>
<polygon fill="#39ff14" stroke="#39ff14" stroke-width="1.3" points="402.67,-273.47 412.27,-277.95 407.57,-268.46 402.67,-273.47"/>
</g>
<!-- runagent&#45;&gt;cli -->
<g id="edge16" class="edge">
<title>runagent&#45;&gt;cli</title>
<path fill="none" stroke="#8b98a5" stroke-width="1.3" stroke-dasharray="1,5" d="M609.75,-296C622.65,-296 635.54,-296 648.44,-296"/>
<polygon fill="#8b98a5" stroke="#8b98a5" stroke-width="1.3" points="648.78,-299.5 658.78,-296 648.78,-292.5 648.78,-299.5"/>
</g>
<!-- prompt -->
<g id="node8" class="node">
<title>prompt</title>
<path fill="#161b22" stroke="#b388ff" stroke-width="1.6" d="M262,-207C262,-207 184,-207 184,-207 178,-207 172,-201 172,-195 172,-195 172,-183 172,-183 172,-177 178,-171 184,-171 184,-171 262,-171 262,-171 268,-171 274,-177 274,-183 274,-183 274,-195 274,-195 274,-201 268,-207 262,-207"/>
<text text-anchor="middle" x="223" y="-186.2" font-family="Helvetica,sans-Serif" font-size="11.00" fill="#b388ff">prompt_builder.py</text>
</g>
<!-- prompt&#45;&gt;runagent -->
<g id="edge7" class="edge">
<title>prompt&#45;&gt;runagent</title>
<path fill="none" stroke="#39ff14" stroke-width="1.3" d="M263.21,-207.11C271.01,-210.03 279.19,-212.82 287,-215 297.59,-217.96 471.78,-244.95 482,-249 496.25,-254.64 510.64,-263.44 522.63,-271.83"/>
<polygon fill="#39ff14" stroke="#39ff14" stroke-width="1.3" points="520.75,-274.79 530.9,-277.82 524.85,-269.12 520.75,-274.79"/>
</g>
<!-- compress -->
<g id="node9" class="node">
<title>compress</title>
<path fill="#161b22" stroke="#b388ff" stroke-width="1.6" d="M414.5,-207C414.5,-207 311.5,-207 311.5,-207 305.5,-207 299.5,-201 299.5,-195 299.5,-195 299.5,-183 299.5,-183 299.5,-177 305.5,-171 311.5,-171 311.5,-171 414.5,-171 414.5,-171 420.5,-171 426.5,-177 426.5,-183 426.5,-183 426.5,-195 426.5,-195 426.5,-201 420.5,-207 414.5,-207"/>
<text text-anchor="middle" x="363" y="-186.2" font-family="Helvetica,sans-Serif" font-size="11.00" fill="#b388ff">context_compressor.py</text>
</g>
<!-- compress&#45;&gt;runagent -->
<g id="edge8" class="edge">
<title>compress&#45;&gt;runagent</title>
<path fill="none" stroke="#39ff14" stroke-width="1.3" d="M400.32,-207.08C424.08,-218.29 455.3,-233.68 482,-249 494.36,-256.09 507.52,-264.5 519.05,-272.17"/>
<polygon fill="#39ff14" stroke="#39ff14" stroke-width="1.3" points="517.26,-275.18 527.51,-277.86 521.17,-269.37 517.26,-275.18"/>
</g>
<!-- meta -->
<g id="node10" class="node">
<title>meta</title>
<path fill="#161b22" stroke="#b388ff" stroke-width="1.6" d="M640,-207C640,-207 464,-207 464,-207 458,-207 452,-201 452,-195 452,-195 452,-183 452,-183 452,-177 458,-171 464,-171 464,-171 640,-171 640,-171 646,-171 652,-177 652,-183 652,-183 652,-195 652,-195 652,-201 646,-207 640,-207"/>
<text text-anchor="middle" x="552" y="-192.2" font-family="Helvetica,sans-Serif" font-size="11.00" fill="#b388ff">model_metadata.py</text>
<text text-anchor="middle" x="552" y="-180.2" font-family="Helvetica,sans-Serif" font-size="11.00" fill="#b388ff">MINIMUM_CONTEXT_LENGTH=64k</text>
</g>
<!-- meta&#45;&gt;runagent -->
<g id="edge9" class="edge">
<title>meta&#45;&gt;runagent</title>
<path fill="none" stroke="#39ff14" stroke-width="1.3" d="M552,-207.34C552,-223.78 552,-248.72 552,-267.81"/>
<polygon fill="#39ff14" stroke="#39ff14" stroke-width="1.3" points="548.5,-267.98 552,-277.98 555.5,-267.98 548.5,-267.98"/>
</g>
<!-- caching -->
<g id="node11" class="node">
<title>caching</title>
<path fill="#161b22" stroke="#b388ff" stroke-width="1.6" d="M772.5,-207C772.5,-207 689.5,-207 689.5,-207 683.5,-207 677.5,-201 677.5,-195 677.5,-195 677.5,-183 677.5,-183 677.5,-177 683.5,-171 689.5,-171 689.5,-171 772.5,-171 772.5,-171 778.5,-171 784.5,-177 784.5,-183 784.5,-183 784.5,-195 784.5,-195 784.5,-201 778.5,-207 772.5,-207"/>
<text text-anchor="middle" x="731" y="-186.2" font-family="Helvetica,sans-Serif" font-size="11.00" fill="#b388ff">prompt_caching.py</text>
</g>
<!-- caching&#45;&gt;runagent -->
<g id="edge10" class="edge">
<title>caching&#45;&gt;runagent</title>
<path fill="none" stroke="#39ff14" stroke-width="1.3" d="M701.84,-207.1C671.42,-224.95 623.58,-253.01 590.16,-272.62"/>
<polygon fill="#39ff14" stroke="#39ff14" stroke-width="1.3" points="588,-269.82 581.15,-277.9 591.54,-275.86 588,-269.82"/>
</g>
<!-- himain -->
<g id="node12" class="node">
<title>himain</title>
<path fill="#161b22" stroke="#ff9f1c" stroke-width="1.6" d="M950,-207C950,-207 822,-207 822,-207 816,-207 810,-201 810,-195 810,-195 810,-183 810,-183 810,-177 816,-171 822,-171 822,-171 950,-171 950,-171 956,-171 962,-177 962,-183 962,-183 962,-195 962,-195 962,-201 956,-207 950,-207"/>
<text text-anchor="middle" x="886" y="-186.2" font-family="Helvetica,sans-Serif" font-size="11.00" fill="#ff9f1c">main.py — `hermes &lt;cmd&gt;`</text>
</g>
<!-- himain&#45;&gt;cli -->
<g id="edge11" class="edge">
<title>himain&#45;&gt;cli</title>
<path fill="none" stroke="#39ff14" stroke-width="1.3" stroke-dasharray="5,2" d="M862.87,-207.1C839.04,-224.72 801.75,-252.3 775.3,-271.86"/>
<polygon fill="#39ff14" stroke="#39ff14" stroke-width="1.3" points="773.08,-269.14 767.12,-277.9 777.24,-274.77 773.08,-269.14"/>
</g>
<!-- switch -->
<g id="node13" class="node">
<title>switch</title>
<path fill="#161b22" stroke="#ff9f1c" stroke-width="1.6" d="M1071,-207C1071,-207 999,-207 999,-207 993,-207 987,-201 987,-195 987,-195 987,-183 987,-183 987,-177 993,-171 999,-171 999,-171 1071,-171 1071,-171 1077,-171 1083,-177 1083,-183 1083,-183 1083,-195 1083,-195 1083,-201 1077,-207 1071,-207"/>
<text text-anchor="middle" x="1035" y="-192.2" font-family="Helvetica,sans-Serif" font-size="11.00" fill="#ff9f1c">model_switch.py</text>
<text text-anchor="middle" x="1035" y="-180.2" font-family="Helvetica,sans-Serif" font-size="11.00" fill="#ff9f1c">/model picker</text>
</g>
<!-- switch&#45;&gt;cli -->
<g id="edge12" class="edge">
<title>switch&#45;&gt;cli</title>
<path fill="none" stroke="#39ff14" stroke-width="1.3" stroke-dasharray="5,2" d="M995.12,-207.02C988.43,-209.76 981.54,-212.51 975,-215 918.17,-236.66 852.57,-259.14 805.84,-274.73"/>
<polygon fill="#39ff14" stroke="#39ff14" stroke-width="1.3" points="804.55,-271.47 796.16,-277.95 806.76,-278.12 804.55,-271.47"/>
<text text-anchor="middle" x="945" y="-233.8" font-family="Helvetica,sans-Serif" font-size="9.00" fill="#8b98a5">/model</text>
</g>
<!-- hiconf -->
<g id="node14" class="node">
<title>hiconf</title>
<path fill="#161b22" stroke="#ff9f1c" stroke-width="1.6" d="M1155.5,-207C1155.5,-207 1120.5,-207 1120.5,-207 1114.5,-207 1108.5,-201 1108.5,-195 1108.5,-195 1108.5,-183 1108.5,-183 1108.5,-177 1114.5,-171 1120.5,-171 1120.5,-171 1155.5,-171 1155.5,-171 1161.5,-171 1167.5,-177 1167.5,-183 1167.5,-183 1167.5,-195 1167.5,-195 1167.5,-201 1161.5,-207 1155.5,-207"/>
<text text-anchor="middle" x="1138" y="-186.2" font-family="Helvetica,sans-Serif" font-size="11.00" fill="#ff9f1c">config.py</text>
</g>
<!-- hiconf&#45;&gt;cli -->
<g id="edge14" class="edge">
<title>hiconf&#45;&gt;cli</title>
<path fill="none" stroke="#39ff14" stroke-width="1.3" stroke-dasharray="5,2" d="M1111.98,-207.18C1106.83,-210.09 1101.36,-212.86 1096,-215 1012.21,-248.48 911.33,-269.61 839.09,-281.69"/>
<polygon fill="#39ff14" stroke="#39ff14" stroke-width="1.3" points="838.39,-278.25 829.09,-283.33 839.52,-285.16 838.39,-278.25"/>
</g>
<!-- cmds -->
<g id="node15" class="node">
<title>cmds</title>
<path fill="#161b22" stroke="#ff9f1c" stroke-width="1.6" d="M1293,-207C1293,-207 1205,-207 1205,-207 1199,-207 1193,-201 1193,-195 1193,-195 1193,-183 1193,-183 1193,-177 1199,-171 1205,-171 1205,-171 1293,-171 1293,-171 1299,-171 1305,-177 1305,-183 1305,-183 1305,-195 1305,-195 1305,-201 1299,-207 1293,-207"/>
<text text-anchor="middle" x="1249" y="-192.2" font-family="Helvetica,sans-Serif" font-size="11.00" fill="#ff9f1c">commands.py</text>
<text text-anchor="middle" x="1249" y="-180.2" font-family="Helvetica,sans-Serif" font-size="11.00" fill="#ff9f1c">resolve_command()</text>
</g>
<!-- cmds&#45;&gt;cli -->
<g id="edge13" class="edge">
<title>cmds&#45;&gt;cli</title>
<path fill="none" stroke="#39ff14" stroke-width="1.3" stroke-dasharray="5,2" d="M1204.77,-207.09C1196.6,-209.94 1188.09,-212.71 1180,-215 1064.66,-247.61 928.28,-270.15 839.16,-282.81"/>
<polygon fill="#39ff14" stroke="#39ff14" stroke-width="1.3" points="838.48,-279.37 829.07,-284.23 839.46,-286.3 838.48,-279.37"/>
</g>
<!-- state -->
<g id="node16" class="node">
<title>state</title>
<path fill="#161b22" stroke="#00e5ff" stroke-width="1.6" d="M1491.5,-207C1491.5,-209.21 1455.42,-211 1411,-211 1366.58,-211 1330.5,-209.21 1330.5,-207 1330.5,-207 1330.5,-171 1330.5,-171 1330.5,-168.79 1366.58,-167 1411,-167 1455.42,-167 1491.5,-168.79 1491.5,-171 1491.5,-171 1491.5,-207 1491.5,-207"/>
<path fill="none" stroke="#00e5ff" stroke-width="1.6" d="M1491.5,-207C1491.5,-204.79 1455.42,-203 1411,-203 1366.58,-203 1330.5,-204.79 1330.5,-207"/>
<text text-anchor="middle" x="1411" y="-192.2" font-family="Helvetica,sans-Serif" font-size="11.00" fill="#00e5ff">hermes_state.py</text>
<text text-anchor="middle" x="1411" y="-180.2" font-family="Helvetica,sans-Serif" font-size="11.00" fill="#00e5ff">SessionDB — SQLite + FTS5</text>
</g>
<!-- state&#45;&gt;runagent -->
<g id="edge15" class="edge">
<title>state&#45;&gt;runagent</title>
<path fill="none" stroke="#00e5ff" stroke-width="1.3" d="M1343.5,-209.92C1335.3,-211.87 1326.99,-213.63 1319,-215 1163.5,-241.58 1122.57,-233.24 965,-241 929.7,-242.74 681.35,-240.67 647,-249 626.72,-253.92 605.67,-263.57 588.57,-272.77"/>
<polygon fill="#00e5ff" stroke="#00e5ff" stroke-width="1.3" points="586.54,-269.88 579.49,-277.79 589.94,-276.01 586.54,-269.88"/>
<text text-anchor="middle" x="1233" y="-233.8" font-family="Helvetica,sans-Serif" font-size="9.00" fill="#8b98a5">sessions/memory</text>
</g>
</g>
</svg>
