<?xml version="1.0" encoding="UTF-8" standalone="no"?>
<!DOCTYPE svg PUBLIC "-//W3C//DTD SVG 1.1//EN"
 "http://www.w3.org/Graphics/SVG/1.1/DTD/svg11.dtd">
<!-- Generated by graphviz version 2.43.0 (0)
 -->
<!-- Title: agents_slash_command_flow Pages: 1 -->
<svg width="624pt" height="511pt"
 viewBox="0.00 0.00 624.20 511.20" xmlns="http://www.w3.org/2000/svg" xmlns:xlink="http://www.w3.org/1999/xlink">
<g id="graph0" class="graph" transform="scale(1 1) rotate(0) translate(21.6 489.6)">
<title>agents_slash_command_flow</title>
<polygon fill="#0d1117" stroke="transparent" points="-21.6,21.6 -21.6,-489.6 602.6,-489.6 602.6,21.6 -21.6,21.6"/>
<text text-anchor="middle" x="290.5" y="-449.6" font-family="Helvetica,sans-Serif" font-size="18.00" fill="#e6f1ff">Slash command dispatch — registry, client&#45;local, and worker fallthrough</text>
<!-- input -->
<g id="node1" class="node">
<title>input</title>
<ellipse fill="#161b22" stroke="#ff2bd6" stroke-width="1.6" cx="226" cy="-422" rx="71.62" ry="18"/>
<text text-anchor="middle" x="226" y="-419.2" font-family="Helvetica,sans-Serif" font-size="11.00" fill="#ff2bd6">user types /command</text>
</g>
<!-- reg -->
<g id="node2" class="node">
<title>reg</title>
<path fill="#161b22" stroke="#f5d90a" stroke-width="1.6" d="M327,-363C327,-363 125,-363 125,-363 119,-363 113,-357 113,-351 113,-351 113,-339 113,-339 113,-333 119,-327 125,-327 125,-327 327,-327 327,-327 333,-327 339,-333 339,-339 339,-339 339,-351 339,-351 339,-357 333,-363 327,-363"/>
<text text-anchor="middle" x="226" y="-348.2" font-family="Helvetica,sans-Serif" font-size="11.00" fill="#f5d90a">resolve_command()</text>
<text text-anchor="middle" x="226" y="-336.2" font-family="Helvetica,sans-Serif" font-size="11.00" fill="#f5d90a">central registry — hermes_cli/commands.py</text>
</g>
<!-- input&#45;&gt;reg -->
<g id="edge1" class="edge">
<title>input&#45;&gt;reg</title>
<path fill="none" stroke="#39ff14" stroke-width="1.3" d="M226,-403.98C226,-394.94 226,-383.6 226,-373.35"/>
<polygon fill="#39ff14" stroke="#39ff14" stroke-width="1.3" points="229.5,-373.21 226,-363.21 222.5,-373.21 229.5,-373.21"/>
</g>
<!-- branch -->
<g id="node3" class="node">
<title>branch</title>
<path fill="#161b22" stroke="#ff9f1c" stroke-width="1.6" d="M214.24,-283.61C214.24,-283.61 149.37,-270.39 149.37,-270.39 143.49,-269.2 143.49,-266.8 149.37,-265.61 149.37,-265.61 214.24,-252.39 214.24,-252.39 220.12,-251.2 231.88,-251.2 237.76,-252.39 237.76,-252.39 302.63,-265.61 302.63,-265.61 308.51,-266.8 308.51,-269.2 302.63,-270.39 302.63,-270.39 237.76,-283.61 237.76,-283.61 231.88,-284.8 220.12,-284.8 214.24,-283.61"/>
<text text-anchor="middle" x="226" y="-265.2" font-family="Helvetica,sans-Serif" font-size="11.00" fill="#ff9f1c">client&#45;local builtin?</text>
</g>
<!-- reg&#45;&gt;branch -->
<g id="edge2" class="edge">
<title>reg&#45;&gt;branch</title>
<path fill="none" stroke="#39ff14" stroke-width="1.3" d="M226,-326.98C226,-317.94 226,-306.6 226,-296.35"/>
<polygon fill="#39ff14" stroke="#39ff14" stroke-width="1.3" points="229.5,-296.21 226,-286.21 222.5,-296.21 229.5,-296.21"/>
</g>
<!-- local -->
<g id="node4" class="node">
<title>local</title>
<path fill="#161b22" stroke="#39ff14" stroke-width="1.6" d="M219,-200C219,-200 109,-200 109,-200 103,-200 97,-194 97,-188 97,-188 97,-168 97,-168 97,-162 103,-156 109,-156 109,-156 219,-156 219,-156 225,-156 231,-162 231,-168 231,-168 231,-188 231,-188 231,-194 225,-200 219,-200"/>
<text text-anchor="middle" x="164" y="-187.2" font-family="Helvetica,sans-Serif" font-size="11.00" fill="#39ff14">handled locally</text>
<text text-anchor="middle" x="164" y="-175.2" font-family="Helvetica,sans-Serif" font-size="11.00" fill="#39ff14">/help /quit /clear /resume</text>
<text text-anchor="middle" x="164" y="-163.2" font-family="Helvetica,sans-Serif" font-size="11.00" fill="#39ff14">/copy /paste ...</text>
</g>
<!-- branch&#45;&gt;local -->
<g id="edge3" class="edge">
<title>branch&#45;&gt;local</title>
<path fill="none" stroke="#39ff14" stroke-width="1.3" d="M215.48,-252.07C207.11,-240.18 195.12,-223.17 184.82,-208.55"/>
<polygon fill="#39ff14" stroke="#39ff14" stroke-width="1.3" points="187.61,-206.44 178.99,-200.28 181.89,-210.47 187.61,-206.44"/>
<text text-anchor="middle" x="205.5" y="-222.8" font-family="Helvetica,sans-Serif" font-size="9.00" fill="#8b98a5">yes</text>
</g>
<!-- exec -->
<g id="node5" class="node">
<title>exec</title>
<path fill="#161b22" stroke="#b388ff" stroke-width="1.6" d="M454,-196C454,-196 272,-196 272,-196 266,-196 260,-190 260,-184 260,-184 260,-172 260,-172 260,-166 266,-160 272,-160 272,-160 454,-160 454,-160 460,-160 466,-166 466,-172 466,-172 466,-184 466,-184 466,-190 460,-196 454,-196"/>
<text text-anchor="middle" x="363" y="-181.2" font-family="Helvetica,sans-Serif" font-size="11.00" fill="#b388ff">slash.exec</text>
<text text-anchor="middle" x="363" y="-169.2" font-family="Helvetica,sans-Serif" font-size="11.00" fill="#b388ff">→ persistent _SlashWorker subprocess</text>
</g>
<!-- branch&#45;&gt;exec -->
<g id="edge4" class="edge">
<title>branch&#45;&gt;exec</title>
<path fill="none" stroke="#b388ff" stroke-width="1.3" d="M246.21,-254.02C267.61,-240.27 301.8,-218.31 327.67,-201.69"/>
<polygon fill="#b388ff" stroke="#b388ff" stroke-width="1.3" points="329.57,-204.63 336.1,-196.28 325.79,-198.74 329.57,-204.63"/>
<text text-anchor="middle" x="303.5" y="-222.8" font-family="Helvetica,sans-Serif" font-size="9.00" fill="#8b98a5">no</text>
</g>
<!-- disp -->
<g id="node6" class="node">
<title>disp</title>
<path fill="#161b22" stroke="#00e5ff" stroke-width="1.6" d="M437.5,-115C437.5,-115 288.5,-115 288.5,-115 282.5,-115 276.5,-109 276.5,-103 276.5,-103 276.5,-91 276.5,-91 276.5,-85 282.5,-79 288.5,-79 288.5,-79 437.5,-79 437.5,-79 443.5,-79 449.5,-85 449.5,-91 449.5,-91 449.5,-103 449.5,-103 449.5,-109 443.5,-115 437.5,-115"/>
<text text-anchor="middle" x="363" y="-100.2" font-family="Helvetica,sans-Serif" font-size="11.00" fill="#00e5ff">command.dispatch (fallback)</text>
<text text-anchor="middle" x="363" y="-88.2" font-family="Helvetica,sans-Serif" font-size="11.00" fill="#00e5ff">HermesCLI.process_command()</text>
</g>
<!-- exec&#45;&gt;disp -->
<g id="edge5" class="edge">
<title>exec&#45;&gt;disp</title>
<path fill="none" stroke="#39ff14" stroke-width="1.3" d="M363,-159.86C363,-149.71 363,-136.63 363,-125.12"/>
<polygon fill="#39ff14" stroke="#39ff14" stroke-width="1.3" points="366.5,-125.11 363,-115.11 359.5,-125.11 366.5,-125.11"/>
</g>
<!-- skill -->
<g id="node7" class="node">
<title>skill</title>
<polygon fill="#11161d" stroke="#8b98a5" stroke-width="1.6" points="478,-38 242,-38 242,0 484,0 484,-32 478,-38"/>
<polyline fill="none" stroke="#8b98a5" stroke-width="1.6" points="478,-38 478,-32 "/>
<polyline fill="none" stroke="#8b98a5" stroke-width="1.6" points="484,-32 478,-32 "/>
<text text-anchor="middle" x="363" y="-26.8" font-family="Helvetica,sans-Serif" font-size="9.00" fill="#8b98a5">skill slash commands</text>
<text text-anchor="middle" x="363" y="-16.8" font-family="Helvetica,sans-Serif" font-size="9.00" fill="#8b98a5">agent/skill_commands.py scans ~/.hermes/skills/</text>
<text text-anchor="middle" x="363" y="-6.8" font-family="Helvetica,sans-Serif" font-size="9.00" fill="#8b98a5">injected as USER message (preserves prompt caching)</text>
</g>
<!-- disp&#45;&gt;skill -->
<g id="edge6" class="edge">
<title>disp&#45;&gt;skill</title>
<path fill="none" stroke="#8b98a5" stroke-width="1.3" stroke-dasharray="1,5" d="M363,-78.75C363,-66.67 363,-50.54 363,-38.24"/>
</g>
</g>
</svg>
