<?xml version="1.0" encoding="UTF-8" standalone="no"?>
<!DOCTYPE svg PUBLIC "-//W3C//DTD SVG 1.1//EN"
 "http://www.w3.org/Graphics/SVG/1.1/DTD/svg11.dtd">
<!-- Generated by graphviz version 2.43.0 (0)
 -->
<!-- Title: lessons_learned Pages: 1 -->
<svg width="604pt" height="674pt"
 viewBox="0.00 0.00 604.00 674.00" xmlns="http://www.w3.org/2000/svg" xmlns:xlink="http://www.w3.org/1999/xlink">
<g id="graph0" class="graph" transform="scale(1 1) rotate(0) translate(4 670)">
<title>lessons_learned</title>
<polygon fill="#fbfbfd" stroke="transparent" points="-4,4 -4,-670 600,-670 600,4 -4,4"/>
<text text-anchor="middle" x="298" y="-646" font-family="Helvetica,sans-Serif" font-size="20.00">Lessons learned — the ModuleNotFoundError trap chain &amp; the fix</text>
<!-- start -->
<g id="node1" class="node">
<title>start</title>
<path fill="#f7d6d6" stroke="#b41f1f" stroke-width="1.5" d="M422.75,-636C422.75,-636 243.75,-636 243.75,-636 237.75,-636 231.75,-630 231.75,-624 231.75,-624 231.75,-612 231.75,-612 231.75,-606 237.75,-600 243.75,-600 243.75,-600 422.75,-600 422.75,-600 428.75,-600 434.75,-606 434.75,-612 434.75,-612 434.75,-624 434.75,-624 434.75,-630 428.75,-636 422.75,-636"/>
<text text-anchor="middle" x="333.25" y="-621.2" font-family="Helvetica,sans-Serif" font-size="11.00">$ ./hermes</text>
<text text-anchor="middle" x="333.25" y="-609.2" font-family="Helvetica,sans-Serif" font-size="11.00">ModuleNotFoundError: &#39;prompt_toolkit&#39;</text>
</g>
<!-- t1 -->
<g id="node2" class="node">
<title>t1</title>
<path fill="#fdeede" stroke="#b4791f" d="M417.75,-563C417.75,-563 248.75,-563 248.75,-563 242.75,-563 236.75,-557 236.75,-551 236.75,-551 236.75,-519 236.75,-519 236.75,-513 242.75,-507 248.75,-507 248.75,-507 417.75,-507 417.75,-507 423.75,-507 429.75,-513 429.75,-519 429.75,-519 429.75,-551 429.75,-551 429.75,-557 423.75,-563 417.75,-563"/>
<text text-anchor="middle" x="333.25" y="-550.2" font-family="Helvetica,sans-Serif" font-size="11.00">TRAP 1 — env python3 shebang</text>
<text text-anchor="middle" x="333.25" y="-538.2" font-family="Helvetica,sans-Serif" font-size="11.00">#!/usr/bin/env python3 runs under</text>
<text text-anchor="middle" x="333.25" y="-526.2" font-family="Helvetica,sans-Serif" font-size="11.00">WHATEVER venv PATH resolves to.</text>
<text text-anchor="middle" x="333.25" y="-514.2" font-family="Helvetica,sans-Serif" font-size="11.00">Activation order = real config.</text>
</g>
<!-- start&#45;&gt;t1 -->
<g id="edge1" class="edge">
<title>start&#45;&gt;t1</title>
<path fill="none" stroke="#5a5a72" d="M333.25,-599.82C333.25,-592.06 333.25,-582.57 333.25,-573.3"/>
<polygon fill="#5a5a72" stroke="#5a5a72" points="336.75,-573.04 333.25,-563.04 329.75,-573.04 336.75,-573.04"/>
</g>
<!-- t2 -->
<g id="node3" class="node">
<title>t2</title>
<path fill="#fdeede" stroke="#b4791f" d="M422.75,-470C422.75,-470 243.75,-470 243.75,-470 237.75,-470 231.75,-464 231.75,-458 231.75,-458 231.75,-426 231.75,-426 231.75,-420 237.75,-414 243.75,-414 243.75,-414 422.75,-414 422.75,-414 428.75,-414 434.75,-420 434.75,-426 434.75,-426 434.75,-458 434.75,-458 434.75,-464 428.75,-470 422.75,-470"/>
<text text-anchor="middle" x="333.25" y="-457.2" font-family="Helvetica,sans-Serif" font-size="11.00">TRAP 2 — shared venv is Python 3.10</text>
<text text-anchor="middle" x="333.25" y="-445.2" font-family="Helvetica,sans-Serif" font-size="11.00">pyproject requires&#45;python &gt;=3.11</text>
<text text-anchor="middle" x="333.25" y="-433.2" font-family="Helvetica,sans-Serif" font-size="11.00">→ pip install &#45;e . refuses outright.</text>
<text text-anchor="middle" x="333.25" y="-421.2" font-family="Helvetica,sans-Serif" font-size="11.00">Not fixable by adding packages.</text>
</g>
<!-- t1&#45;&gt;t2 -->
<g id="edge2" class="edge">
<title>t1&#45;&gt;t2</title>
<path fill="none" stroke="#5a5a72" d="M333.25,-506.7C333.25,-498.42 333.25,-489.18 333.25,-480.36"/>
<polygon fill="#5a5a72" stroke="#5a5a72" points="336.75,-480.28 333.25,-470.28 329.75,-480.28 336.75,-480.28"/>
</g>
<!-- t3 -->
<g id="node4" class="node">
<title>t3</title>
<path fill="#fdeede" stroke="#b4791f" d="M415.25,-377C415.25,-377 251.25,-377 251.25,-377 245.25,-377 239.25,-371 239.25,-365 239.25,-365 239.25,-333 239.25,-333 239.25,-327 245.25,-321 251.25,-321 251.25,-321 415.25,-321 415.25,-321 421.25,-321 427.25,-327 427.25,-333 427.25,-333 427.25,-365 427.25,-365 427.25,-371 421.25,-377 415.25,-377"/>
<text text-anchor="middle" x="333.25" y="-364.2" font-family="Helvetica,sans-Serif" font-size="11.00">TRAP 3 — import treadmill</text>
<text text-anchor="middle" x="333.25" y="-352.2" font-family="Helvetica,sans-Serif" font-size="11.00">hand&#45;install prompt_toolkit → next:</text>
<text text-anchor="middle" x="333.25" y="-340.2" font-family="Helvetica,sans-Serif" font-size="11.00">import fire → then more...</text>
<text text-anchor="middle" x="333.25" y="-328.2" font-family="Helvetica,sans-Serif" font-size="11.00">Chasing transitive deps one by one.</text>
</g>
<!-- t2&#45;&gt;t3 -->
<g id="edge3" class="edge">
<title>t2&#45;&gt;t3</title>
<path fill="none" stroke="#5a5a72" d="M333.25,-413.7C333.25,-405.42 333.25,-396.18 333.25,-387.36"/>
<polygon fill="#5a5a72" stroke="#5a5a72" points="336.75,-387.28 333.25,-377.28 329.75,-387.28 336.75,-387.28"/>
</g>
<!-- fix -->
<g id="node5" class="node">
<title>fix</title>
<path fill="#d6f2e4" stroke="#1f8b5a" stroke-width="1.8" d="M461.75,-284C461.75,-284 204.75,-284 204.75,-284 198.75,-284 192.75,-278 192.75,-272 192.75,-272 192.75,-240 192.75,-240 192.75,-234 198.75,-228 204.75,-228 204.75,-228 461.75,-228 461.75,-228 467.75,-228 473.75,-234 473.75,-240 473.75,-240 473.75,-272 473.75,-272 473.75,-278 467.75,-284 461.75,-284"/>
<text text-anchor="middle" x="333.25" y="-271.2" font-family="Helvetica,sans-Serif" font-size="11.00">THE FIX — dedicated repo&#45;local venv on Python 3.12</text>
<text text-anchor="middle" x="333.25" y="-259.2" font-family="Helvetica,sans-Serif" font-size="11.00">python3.12 &#45;m venv .venv</text>
<text text-anchor="middle" x="333.25" y="-247.2" font-family="Helvetica,sans-Serif" font-size="11.00">.venv/bin/python &#45;m pip install &#45;&#45;upgrade pip</text>
<text text-anchor="middle" x="333.25" y="-235.2" font-family="Helvetica,sans-Serif" font-size="11.00">.venv/bin/python &#45;m pip install &#45;e . &#160;&#160;(resolves ALL deps)</text>
</g>
<!-- t3&#45;&gt;fix -->
<g id="edge4" class="edge">
<title>t3&#45;&gt;fix</title>
<path fill="none" stroke="#5a5a72" d="M333.25,-320.7C333.25,-312.42 333.25,-303.18 333.25,-294.36"/>
<polygon fill="#5a5a72" stroke="#5a5a72" points="336.75,-294.28 333.25,-284.28 329.75,-294.28 336.75,-294.28"/>
</g>
<!-- why -->
<g id="node6" class="node">
<title>why</title>
<path fill="#e9f7f0" stroke="#1f8b5a" d="M338.25,-181C338.25,-181 66.25,-181 66.25,-181 60.25,-181 54.25,-175 54.25,-169 54.25,-169 54.25,-137 54.25,-137 54.25,-131 60.25,-125 66.25,-125 66.25,-125 338.25,-125 338.25,-125 344.25,-125 350.25,-131 350.25,-137 350.25,-137 350.25,-169 350.25,-169 350.25,-175 344.25,-181 338.25,-181"/>
<text text-anchor="middle" x="202.25" y="-168.2" font-family="Helvetica,sans-Serif" font-size="11.00">Why it works</text>
<text text-anchor="middle" x="202.25" y="-156.2" font-family="Helvetica,sans-Serif" font-size="11.00">• worlock has 3.11/3.12/3.13 in /usr/local/bin (3.12 chosen)</text>
<text text-anchor="middle" x="202.25" y="-144.2" font-family="Helvetica,sans-Serif" font-size="11.00">• &#45;e . pulls every pyproject dep in one shot</text>
<text text-anchor="middle" x="202.25" y="-132.2" font-family="Helvetica,sans-Serif" font-size="11.00">• `v` alias prefers ./.venv → activation deterministic</text>
</g>
<!-- fix&#45;&gt;why -->
<g id="edge5" class="edge">
<title>fix&#45;&gt;why</title>
<path fill="none" stroke="#5a5a72" d="M298.14,-227.93C281.99,-215.48 262.67,-200.58 245.62,-187.44"/>
<polygon fill="#5a5a72" stroke="#5a5a72" points="247.51,-184.47 237.45,-181.14 243.23,-190.02 247.51,-184.47"/>
</g>
<!-- herring -->
<g id="node7" class="node">
<title>herring</title>
<polygon fill="#fff7d6" stroke="#b4a01f" points="555.75,-181 368.75,-181 368.75,-125 561.75,-125 561.75,-175 555.75,-181"/>
<polyline fill="none" stroke="#b4a01f" points="555.75,-181 555.75,-175 "/>
<polyline fill="none" stroke="#b4a01f" points="561.75,-175 555.75,-175 "/>
<text text-anchor="middle" x="465.25" y="-168.2" font-family="Helvetica,sans-Serif" font-size="11.00">Harmless red herring</text>
<text text-anchor="middle" x="465.25" y="-156.2" font-family="Helvetica,sans-Serif" font-size="11.00">firecrawl Pydantic UserWarning:</text>
<text text-anchor="middle" x="465.25" y="-144.2" font-family="Helvetica,sans-Serif" font-size="11.00">Field &#39;json&#39; shadows BaseModel attr.</text>
<text text-anchor="middle" x="465.25" y="-132.2" font-family="Helvetica,sans-Serif" font-size="11.00">It&#39;s a warning, not an error — ignore.</text>
</g>
<!-- fix&#45;&gt;herring -->
<g id="edge6" class="edge">
<title>fix&#45;&gt;herring</title>
<path fill="none" stroke="#5a5a72" stroke-dasharray="5,2" d="M368.62,-227.93C384.9,-215.48 404.37,-200.58 421.55,-187.44"/>
<polygon fill="#5a5a72" stroke="#5a5a72" points="423.96,-190 429.78,-181.14 419.71,-184.44 423.96,-190"/>
<text text-anchor="middle" x="432.75" y="-202" font-family="Helvetica,sans-Serif" font-size="10.00">post&#45;fix noise</text>
</g>
<!-- takeaway -->
<g id="node8" class="node">
<title>takeaway</title>
<path fill="#eef1f7" stroke="#34344a" d="M354.25,-84C354.25,-84 50.25,-84 50.25,-84 44.25,-84 38.25,-78 38.25,-72 38.25,-72 38.25,-16 38.25,-16 38.25,-10 44.25,-4 50.25,-4 50.25,-4 354.25,-4 354.25,-4 360.25,-4 366.25,-10 366.25,-16 366.25,-16 366.25,-72 366.25,-72 366.25,-78 360.25,-84 354.25,-84"/>
<path fill="none" stroke="#34344a" d="M358.25,-88C358.25,-88 46.25,-88 46.25,-88 40.25,-88 34.25,-82 34.25,-76 34.25,-76 34.25,-12 34.25,-12 34.25,-6 40.25,0 46.25,0 46.25,0 358.25,0 358.25,0 364.25,0 370.25,-6 370.25,-12 370.25,-12 370.25,-76 370.25,-76 370.25,-82 364.25,-88 358.25,-88"/>
<text text-anchor="middle" x="202.25" y="-71.2" font-family="Helvetica,sans-Serif" font-size="11.00">Takeaways</text>
<text text-anchor="middle" x="202.25" y="-59.2" font-family="Helvetica,sans-Serif" font-size="11.00">• env&#45;python3 shebang has no opinion on interpreter — you must</text>
<text text-anchor="middle" x="202.25" y="-47.2" font-family="Helvetica,sans-Serif" font-size="11.00">• read requires&#45;python first; version mismatch isn&#39;t pip&#45;fixable</text>
<text text-anchor="middle" x="202.25" y="-35.2" font-family="Helvetica,sans-Serif" font-size="11.00">• install the project, not its imports</text>
<text text-anchor="middle" x="202.25" y="-23.2" font-family="Helvetica,sans-Serif" font-size="11.00">• prefer repo&#45;local .venv over shared</text>
<text text-anchor="middle" x="202.25" y="-11.2" font-family="Helvetica,sans-Serif" font-size="11.00">• triage warnings before chasing</text>
</g>
<!-- why&#45;&gt;takeaway -->
<g id="edge7" class="edge">
<title>why&#45;&gt;takeaway</title>
<path fill="none" stroke="#5a5a72" d="M202.25,-125C202.25,-116.82 202.25,-107.53 202.25,-98.24"/>
<polygon fill="#5a5a72" stroke="#5a5a72" points="205.75,-98.23 202.25,-88.23 198.75,-98.23 205.75,-98.23"/>
</g>
</g>
</svg>
