<?xml version="1.0" encoding="UTF-8" standalone="no"?>
<!DOCTYPE svg PUBLIC "-//W3C//DTD SVG 1.1//EN"
 "http://www.w3.org/Graphics/SVG/1.1/DTD/svg11.dtd">
<!-- Generated by graphviz version 2.43.0 (0)
 -->
<!-- Title: network_topology Pages: 1 -->
<svg width="1354pt" height="458pt"
 viewBox="0.00 0.00 1354.38 458.00" xmlns="http://www.w3.org/2000/svg" xmlns:xlink="http://www.w3.org/1999/xlink">
<g id="graph0" class="graph" transform="scale(1 1) rotate(0) translate(4 454)">
<title>network_topology</title>
<polygon fill="#fbfbfd" stroke="transparent" points="-4,4 -4,-454 1350.38,-454 1350.38,4 -4,4"/>
<text text-anchor="middle" x="673.19" y="-430" font-family="Helvetica,sans-Serif" font-size="20.00">worlock — bare&#45;metal host &amp; network topology for hermes&#45;agent</text>
<g id="clust1" class="cluster">
<title>cluster_host</title>
<path fill="#f1f4fb" stroke="#9aa7bd" d="M20,-162C20,-162 853.37,-162 853.37,-162 859.37,-162 865.37,-168 865.37,-174 865.37,-174 865.37,-400 865.37,-400 865.37,-406 859.37,-412 853.37,-412 853.37,-412 20,-412 20,-412 14,-412 8,-406 8,-400 8,-400 8,-174 8,-174 8,-168 14,-162 20,-162"/>
<text text-anchor="middle" x="436.69" y="-392" font-family="Helvetica,sans-Serif" font-size="20.00">host: worlock &#160;(Ubuntu 22.04.5 · kernel 6.8.12 · zsh)</text>
</g>
<g id="clust2" class="cluster">
<title>cluster_gpu</title>
<path fill="#e9f7f0" stroke="#1f8b5a" d="M566.37,-206C566.37,-206 845.37,-206 845.37,-206 851.37,-206 857.37,-212 857.37,-218 857.37,-218 857.37,-330 857.37,-330 857.37,-336 851.37,-342 845.37,-342 845.37,-342 566.37,-342 566.37,-342 560.37,-342 554.37,-336 554.37,-330 554.37,-330 554.37,-218 554.37,-218 554.37,-212 560.37,-206 566.37,-206"/>
<text text-anchor="middle" x="705.87" y="-322" font-family="Helvetica,sans-Serif" font-size="20.00">Dual NVIDIA (driver 580.159.03)</text>
</g>
<g id="clust3" class="cluster">
<title>cluster_proc</title>
<path fill="#fbf3e7" stroke="#b4791f" d="M28,-216C28,-216 381,-216 381,-216 387,-216 393,-222 393,-228 393,-228 393,-310 393,-310 393,-316 387,-322 381,-322 381,-322 28,-322 28,-322 22,-322 16,-316 16,-310 16,-310 16,-228 16,-228 16,-222 22,-216 28,-216"/>
<text text-anchor="middle" x="204.5" y="-302" font-family="Helvetica,sans-Serif" font-size="20.00">processes</text>
</g>
<g id="clust4" class="cluster">
<title>cluster_gh</title>
<path fill="#f1f4fb" stroke="#9aa7bd" d="M1105.38,-8C1105.38,-8 1326.38,-8 1326.38,-8 1332.38,-8 1338.38,-14 1338.38,-20 1338.38,-20 1338.38,-132 1338.38,-132 1338.38,-138 1332.38,-144 1326.38,-144 1326.38,-144 1105.38,-144 1105.38,-144 1099.38,-144 1093.38,-138 1093.38,-132 1093.38,-132 1093.38,-20 1093.38,-20 1093.38,-14 1099.38,-8 1105.38,-8"/>
<text text-anchor="middle" x="1215.88" y="-124" font-family="Helvetica,sans-Serif" font-size="20.00">GitHub remotes</text>
</g>
<!-- cpu -->
<g id="node1" class="node">
<title>cpu</title>
<path fill="#e7ecf7" stroke="#34344a" d="M370,-206C370,-206 266,-206 266,-206 260,-206 254,-200 254,-194 254,-194 254,-182 254,-182 254,-176 260,-170 266,-170 266,-170 370,-170 370,-170 376,-170 382,-176 382,-182 382,-182 382,-194 382,-194 382,-200 376,-206 370,-206"/>
<text text-anchor="middle" x="318" y="-191.2" font-family="Helvetica,sans-Serif" font-size="11.00">AMD Ryzen 9 5950X</text>
<text text-anchor="middle" x="318" y="-179.2" font-family="Helvetica,sans-Serif" font-size="11.00">16c/32t · 125 GiB RAM</text>
</g>
<!-- lan -->
<g id="node7" class="node">
<title>lan</title>
<ellipse fill="#e7ecf7" stroke="#34344a" cx="705.87" cy="-131" rx="96.75" ry="22.76"/>
<text text-anchor="middle" x="705.87" y="-134.2" font-family="Helvetica,sans-Serif" font-size="11.00">LAN &#160;enp9s0</text>
<text text-anchor="middle" x="705.87" y="-122.2" font-family="Helvetica,sans-Serif" font-size="11.00">192.168.1.85/24 (DHCP)</text>
</g>
<!-- cpu&#45;&gt;lan -->
<g id="edge6" class="edge">
<title>cpu&#45;&gt;lan</title>
<path fill="none" stroke="#5a5a72" d="M382.29,-178.65C445.05,-169.38 541.89,-155.07 613.1,-144.56"/>
<polygon fill="#5a5a72" stroke="#5a5a72" points="614.03,-147.96 623.41,-143.03 613.01,-141.03 614.03,-147.96"/>
</g>
<!-- g5080 -->
<g id="node2" class="node">
<title>g5080</title>
<path fill="#d6f2e4" stroke="#34344a" d="M738.37,-250C738.37,-250 673.37,-250 673.37,-250 667.37,-250 661.37,-244 661.37,-238 661.37,-238 661.37,-226 661.37,-226 661.37,-220 667.37,-214 673.37,-214 673.37,-214 738.37,-214 738.37,-214 744.37,-214 750.37,-220 750.37,-226 750.37,-226 750.37,-238 750.37,-238 750.37,-244 744.37,-250 738.37,-250"/>
<text text-anchor="middle" x="705.87" y="-235.2" font-family="Helvetica,sans-Serif" font-size="11.00">RTX 5080</text>
<text text-anchor="middle" x="705.87" y="-223.2" font-family="Helvetica,sans-Serif" font-size="11.00">~16 GB VRAM</text>
</g>
<!-- g3080 -->
<g id="node3" class="node">
<title>g3080</title>
<path fill="#d6f2e4" stroke="#34344a" d="M738.37,-304C738.37,-304 673.37,-304 673.37,-304 667.37,-304 661.37,-298 661.37,-292 661.37,-292 661.37,-280 661.37,-280 661.37,-274 667.37,-268 673.37,-268 673.37,-268 738.37,-268 738.37,-268 744.37,-268 750.37,-274 750.37,-280 750.37,-280 750.37,-292 750.37,-292 750.37,-298 744.37,-304 738.37,-304"/>
<text text-anchor="middle" x="705.87" y="-289.2" font-family="Helvetica,sans-Serif" font-size="11.00">RTX 3080</text>
<text text-anchor="middle" x="705.87" y="-277.2" font-family="Helvetica,sans-Serif" font-size="11.00">~10 GB VRAM</text>
</g>
<!-- hermes -->
<g id="node4" class="node">
<title>hermes</title>
<path fill="#ffe9c9" stroke="#34344a" d="M122,-268C122,-268 36,-268 36,-268 30,-268 24,-262 24,-256 24,-256 24,-236 24,-236 24,-230 30,-224 36,-224 36,-224 122,-224 122,-224 128,-224 134,-230 134,-236 134,-236 134,-256 134,-256 134,-262 128,-268 122,-268"/>
<text text-anchor="middle" x="79" y="-255.2" font-family="Helvetica,sans-Serif" font-size="11.00">hermes&#45;agent</text>
<text text-anchor="middle" x="79" y="-243.2" font-family="Helvetica,sans-Serif" font-size="11.00">.venv (Python 3.12)</text>
<text text-anchor="middle" x="79" y="-231.2" font-family="Helvetica,sans-Serif" font-size="11.00">./hermes</text>
</g>
<!-- hermes&#45;&gt;cpu -->
<g id="edge4" class="edge">
<title>hermes&#45;&gt;cpu</title>
<path fill="none" stroke="#5a5a72" stroke-dasharray="1,5" d="M134.08,-232.77C166.67,-224.79 208.6,-214.53 244.1,-205.84"/>
<polygon fill="#5a5a72" stroke="#5a5a72" points="245.04,-209.21 253.93,-203.44 243.38,-202.41 245.04,-209.21"/>
</g>
<!-- ollama -->
<g id="node5" class="node">
<title>ollama</title>
<path fill="#ffe9c9" stroke="#34344a" d="M385,-278.96C385,-282.02 354.97,-284.5 318,-284.5 281.03,-284.5 251,-282.02 251,-278.96 251,-278.96 251,-229.04 251,-229.04 251,-225.98 281.03,-223.5 318,-223.5 354.97,-223.5 385,-225.98 385,-229.04 385,-229.04 385,-278.96 385,-278.96"/>
<path fill="none" stroke="#34344a" d="M385,-278.96C385,-275.9 354.97,-273.41 318,-273.41 281.03,-273.41 251,-275.9 251,-278.96"/>
<text text-anchor="middle" x="318" y="-263.2" font-family="Helvetica,sans-Serif" font-size="11.00">Ollama &#160;127.0.0.1:11434</text>
<text text-anchor="middle" x="318" y="-251.2" font-family="Helvetica,sans-Serif" font-size="11.00">/v1 + native root</text>
<text text-anchor="middle" x="318" y="-239.2" font-family="Helvetica,sans-Serif" font-size="11.00">(localhost&#45;only)</text>
</g>
<!-- hermes&#45;&gt;ollama -->
<g id="edge1" class="edge">
<title>hermes&#45;&gt;ollama</title>
<path fill="none" stroke="#1f8b5a" stroke-width="1.5" d="M134.06,-247.29C161.33,-247.99 194.93,-248.93 225,-250 230.06,-250.18 235.28,-250.38 240.54,-250.58"/>
<polygon fill="#1f8b5a" stroke="#1f8b5a" stroke-width="1.5" points="240.54,-254.09 250.67,-250.99 240.82,-247.09 240.54,-254.09"/>
<text text-anchor="middle" x="188.5" y="-252.8" font-family="Helvetica,sans-Serif" font-size="9.00">localhost /v1</text>
</g>
<!-- venvshared -->
<g id="node6" class="node">
<title>venvshared</title>
<polygon fill="#f7d6d6" stroke="#b41f1f" stroke-dasharray="5,2" points="393,-374 243,-374 243,-330 393,-330 393,-374"/>
<text text-anchor="middle" x="318" y="-361.2" font-family="Helvetica,sans-Serif" font-size="11.00">shared venv (Py 3.10)</text>
<text text-anchor="middle" x="318" y="-349.2" font-family="Helvetica,sans-Serif" font-size="11.00">/home/jeb/programs/.../venv</text>
<text text-anchor="middle" x="318" y="-337.2" font-family="Helvetica,sans-Serif" font-size="11.00">✗ wrong for hermes</text>
</g>
<!-- hermes&#45;&gt;venvshared -->
<g id="edge5" class="edge">
<title>hermes&#45;&gt;venvshared</title>
<path fill="none" stroke="#b41f1f" stroke-dasharray="5,2" d="M121.58,-268.11C154.15,-285.01 200.85,-308.32 243,-326 243.1,-326.04 243.2,-326.08 243.29,-326.12"/>
<polygon fill="#b41f1f" stroke="#b41f1f" points="242.07,-329.4 252.65,-329.91 244.69,-322.91 242.07,-329.4"/>
<text text-anchor="middle" x="188.5" y="-320.8" font-family="Helvetica,sans-Serif" font-size="9.00">fallback (avoided)</text>
</g>
<!-- origin -->
<g id="node10" class="node">
<title>origin</title>
<path fill="#e7ecf7" stroke="#34344a" d="M1304.88,-106C1304.88,-106 1126.88,-106 1126.88,-106 1120.88,-106 1114.88,-100 1114.88,-94 1114.88,-94 1114.88,-82 1114.88,-82 1114.88,-76 1120.88,-70 1126.88,-70 1126.88,-70 1304.88,-70 1304.88,-70 1310.88,-70 1316.88,-76 1316.88,-82 1316.88,-82 1316.88,-94 1316.88,-94 1316.88,-100 1310.88,-106 1304.88,-106"/>
<text text-anchor="middle" x="1215.88" y="-91.2" font-family="Helvetica,sans-Serif" font-size="11.00">origin → NousResearch/hermes&#45;agent</text>
<text text-anchor="middle" x="1215.88" y="-79.2" font-family="Helvetica,sans-Serif" font-size="11.00">(pull upstream)</text>
</g>
<!-- hermes&#45;&gt;origin -->
<g id="edge9" class="edge">
<title>hermes&#45;&gt;origin</title>
<path fill="none" stroke="#5a5a72" stroke-dasharray="5,2" d="M94.03,-223.76C107.13,-204.4 128.2,-176.6 152,-158 215.91,-108.05 235.89,-80 317,-80 317,-80 317,-80 984.06,-80 1023.36,-80 1066.39,-81.17 1104.54,-82.62"/>
<polygon fill="#5a5a72" stroke="#5a5a72" points="1104.51,-86.12 1114.64,-83.01 1104.79,-79.13 1104.51,-86.12"/>
<text text-anchor="middle" x="705.87" y="-82.8" font-family="Helvetica,sans-Serif" font-size="9.00">git pull</text>
</g>
<!-- private -->
<g id="node11" class="node">
<title>private</title>
<path fill="#dde7f7" stroke="#34344a" d="M1318.38,-52C1318.38,-52 1113.38,-52 1113.38,-52 1107.38,-52 1101.38,-46 1101.38,-40 1101.38,-40 1101.38,-28 1101.38,-28 1101.38,-22 1107.38,-16 1113.38,-16 1113.38,-16 1318.38,-16 1318.38,-16 1324.38,-16 1330.38,-22 1330.38,-28 1330.38,-28 1330.38,-40 1330.38,-40 1330.38,-46 1324.38,-52 1318.38,-52"/>
<text text-anchor="middle" x="1215.88" y="-37.2" font-family="Helvetica,sans-Serif" font-size="11.00">private → danindiana/hermes&#45;agent&#45;worlock</text>
<text text-anchor="middle" x="1215.88" y="-25.2" font-family="Helvetica,sans-Serif" font-size="11.00">(push fork)</text>
</g>
<!-- hermes&#45;&gt;private -->
<g id="edge10" class="edge">
<title>hermes&#45;&gt;private</title>
<path fill="none" stroke="#5a5a72" stroke-dasharray="5,2" d="M85.33,-224C94.09,-192.27 114.41,-133.69 152,-99 209.92,-45.55 238.18,-34 317,-34 317,-34 317,-34 984.06,-34 1018.8,-34 1056.49,-34 1091.13,-34"/>
<polygon fill="#5a5a72" stroke="#5a5a72" points="1091.3,-37.5 1101.3,-34 1091.3,-30.5 1091.3,-37.5"/>
<text text-anchor="middle" x="705.87" y="-36.8" font-family="Helvetica,sans-Serif" font-size="9.00">git push</text>
</g>
<!-- ollama&#45;&gt;g5080 -->
<g id="edge2" class="edge">
<title>ollama&#45;&gt;g5080</title>
<path fill="none" stroke="#1f8b5a" d="M385.28,-246.26C393.93,-245.4 402.67,-244.62 411,-244 494.58,-237.76 591.8,-234.59 650.8,-233.12"/>
<polygon fill="#1f8b5a" stroke="#1f8b5a" points="651.09,-236.61 661.01,-232.87 650.92,-229.61 651.09,-236.61"/>
<text text-anchor="middle" x="470" y="-246.8" font-family="Helvetica,sans-Serif" font-size="9.00">VRAM</text>
</g>
<!-- ollama&#45;&gt;g3080 -->
<g id="edge3" class="edge">
<title>ollama&#45;&gt;g3080</title>
<path fill="none" stroke="#1f8b5a" d="M385.33,-259.5C460.45,-265.73 581.41,-275.76 650.97,-281.53"/>
<polygon fill="#1f8b5a" stroke="#1f8b5a" points="651,-285.04 661.26,-282.38 651.58,-278.07 651,-285.04"/>
<text text-anchor="middle" x="470" y="-272.8" font-family="Helvetica,sans-Serif" font-size="9.00">OLLAMA_SCHED_SPREAD</text>
</g>
<!-- router -->
<g id="node8" class="node">
<title>router</title>
<ellipse fill="#e7ecf7" stroke="#34344a" cx="983.06" cy="-131" rx="81.13" ry="22.76"/>
<text text-anchor="middle" x="983.06" y="-134.2" font-family="Helvetica,sans-Serif" font-size="11.00">ATT BGW210 router</text>
<text text-anchor="middle" x="983.06" y="-122.2" font-family="Helvetica,sans-Serif" font-size="11.00">192.168.1.254</text>
</g>
<!-- lan&#45;&gt;router -->
<g id="edge7" class="edge">
<title>lan&#45;&gt;router</title>
<path fill="none" stroke="#5a5a72" d="M803.12,-131C831.7,-131 862.89,-131 891.12,-131"/>
<polygon fill="#5a5a72" stroke="#5a5a72" points="891.38,-134.5 901.37,-131 891.37,-127.5 891.38,-134.5"/>
</g>
<!-- vpn -->
<g id="node9" class="node">
<title>vpn</title>
<ellipse fill="#f3e7fb" stroke="#34344a" cx="1215.88" cy="-175" rx="62.87" ry="22.76"/>
<text text-anchor="middle" x="1215.88" y="-178.2" font-family="Helvetica,sans-Serif" font-size="11.00">PIA WireGuard</text>
<text text-anchor="middle" x="1215.88" y="-166.2" font-family="Helvetica,sans-Serif" font-size="11.00">wgpia0</text>
</g>
<!-- router&#45;&gt;vpn -->
<g id="edge8" class="edge">
<title>router&#45;&gt;vpn</title>
<path fill="none" stroke="#5a5a72" stroke-dasharray="1,5" d="M1050.52,-143.67C1081.76,-149.62 1118.88,-156.7 1149.94,-162.62"/>
<polygon fill="#5a5a72" stroke="#5a5a72" points="1149.31,-166.06 1159.79,-164.5 1150.62,-159.19 1149.31,-166.06"/>
</g>
<!-- router&#45;&gt;origin -->
<g id="edge11" class="edge">
<title>router&#45;&gt;origin</title>
<path fill="none" stroke="#5a5a72" stroke-dasharray="1,5" d="M1056.85,-121.4C1065.8,-120.02 1074.81,-118.55 1083.38,-117 1097.78,-114.4 1112.99,-111.34 1127.76,-108.2"/>
<polygon fill="#5a5a72" stroke="#5a5a72" points="1128.86,-111.54 1137.9,-106.02 1127.39,-104.7 1128.86,-111.54"/>
</g>
<!-- router&#45;&gt;private -->
<g id="edge12" class="edge">
<title>router&#45;&gt;private</title>
<path fill="none" stroke="#5a5a72" stroke-dasharray="1,5" d="M1011.32,-109.68C1032.57,-94.05 1063.42,-73.46 1093.38,-61 1098.43,-58.9 1103.67,-56.95 1109.01,-55.14"/>
<polygon fill="#5a5a72" stroke="#5a5a72" points="1110.26,-58.42 1118.72,-52.04 1108.13,-51.75 1110.26,-58.42"/>
</g>
</g>
</svg>
