<?xml version="1.0" encoding="UTF-8" standalone="no"?>
<!DOCTYPE svg PUBLIC "-//W3C//DTD SVG 1.1//EN"
 "http://www.w3.org/Graphics/SVG/1.1/DTD/svg11.dtd">
<!-- Generated by graphviz version 2.43.0 (0)
 -->
<!-- Title: ollama_model_switch Pages: 1 -->
<svg width="614pt" height="634pt"
 viewBox="0.00 0.00 613.50 634.00" xmlns="http://www.w3.org/2000/svg" xmlns:xlink="http://www.w3.org/1999/xlink">
<g id="graph0" class="graph" transform="scale(1 1) rotate(0) translate(4 630)">
<title>ollama_model_switch</title>
<polygon fill="#fbfbfd" stroke="transparent" points="-4,4 -4,-630 609.5,-630 609.5,4 -4,4"/>
<text text-anchor="middle" x="302.75" y="-606" font-family="Helvetica,sans-Serif" font-size="20.00">Ollama integration &amp; /model switch flow (worlock fork)</text>
<g id="clust1" class="cluster">
<title>cluster_two</title>
<path fill="#e9f7f0" stroke="#1f8b5a" d="M30,-93C30,-93 372,-93 372,-93 378,-93 384,-99 384,-105 384,-105 384,-171 384,-171 384,-177 378,-183 372,-183 372,-183 30,-183 30,-183 24,-183 18,-177 18,-171 18,-171 18,-105 18,-105 18,-99 24,-93 30,-93"/>
<text text-anchor="middle" x="201" y="-163" font-family="Helvetica,sans-Serif" font-size="20.00">two URLs on :11434</text>
</g>
<!-- v1 -->
<g id="node1" class="node">
<title>v1</title>
<path fill="#d6f2e4" stroke="#34344a" d="M175.5,-145C175.5,-145 38.5,-145 38.5,-145 32.5,-145 26.5,-139 26.5,-133 26.5,-133 26.5,-113 26.5,-113 26.5,-107 32.5,-101 38.5,-101 38.5,-101 175.5,-101 175.5,-101 181.5,-101 187.5,-107 187.5,-113 187.5,-113 187.5,-133 187.5,-133 187.5,-139 181.5,-145 175.5,-145"/>
<text text-anchor="middle" x="107" y="-132.2" font-family="Helvetica,sans-Serif" font-size="11.00">/v1 &#160;(OpenAI&#45;compat)</text>
<text text-anchor="middle" x="107" y="-120.2" font-family="Helvetica,sans-Serif" font-size="11.00">chat/completions + /v1/models</text>
<text text-anchor="middle" x="107" y="-108.2" font-family="Helvetica,sans-Serif" font-size="11.00">→ generation &amp; picker listing</text>
</g>
<!-- root -->
<g id="node2" class="node">
<title>root</title>
<path fill="#d6f2e4" stroke="#34344a" d="M364,-145C364,-145 218,-145 218,-145 212,-145 206,-139 206,-133 206,-133 206,-113 206,-113 206,-107 212,-101 218,-101 218,-101 364,-101 364,-101 370,-101 376,-107 376,-113 376,-113 376,-133 376,-133 376,-139 370,-145 364,-145"/>
<text text-anchor="middle" x="291" y="-132.2" font-family="Helvetica,sans-Serif" font-size="11.00">native root</text>
<text text-anchor="middle" x="291" y="-120.2" font-family="Helvetica,sans-Serif" font-size="11.00">/api/tags · /api/ps · /api/generate</text>
<text text-anchor="middle" x="291" y="-108.2" font-family="Helvetica,sans-Serif" font-size="11.00">→ unload model (free VRAM)</text>
</g>
<!-- pick -->
<g id="node3" class="node">
<title>pick</title>
<path fill="#ffe9c9" stroke="#b4791f" d="M224,-596C224,-596 12,-596 12,-596 6,-596 0,-590 0,-584 0,-584 0,-552 0,-552 0,-546 6,-540 12,-540 12,-540 224,-540 224,-540 230,-540 236,-546 236,-552 236,-552 236,-584 236,-584 236,-590 230,-596 224,-596"/>
<text text-anchor="middle" x="118" y="-583.2" font-family="Helvetica,sans-Serif" font-size="11.00">/model — picker opens</text>
<text text-anchor="middle" x="118" y="-571.2" font-family="Helvetica,sans-Serif" font-size="11.00">list_authenticated_providers(probe_live=True)</text>
<text text-anchor="middle" x="118" y="-559.2" font-family="Helvetica,sans-Serif" font-size="11.00">→ fetch_api_models() merges live + config</text>
<text text-anchor="middle" x="118" y="-547.2" font-family="Helvetica,sans-Serif" font-size="11.00">(cap max_models=50)</text>
</g>
<!-- pick&#45;&gt;v1 -->
<g id="edge1" class="edge">
<title>pick&#45;&gt;v1</title>
<path fill="none" stroke="#1f8b5a" stroke-dasharray="5,2" d="M112.21,-539.96C109.14,-523.32 106,-501.52 106,-482 106,-482 106,-482 106,-237 106,-209.39 106.3,-177.99 106.57,-155.31"/>
<polygon fill="#1f8b5a" stroke="#1f8b5a" points="110.07,-155.29 106.7,-145.24 103.08,-155.2 110.07,-155.29"/>
<text text-anchor="middle" x="123" y="-360" font-family="Helvetica,sans-Serif" font-size="10.00">lists via</text>
</g>
<!-- sel -->
<g id="node4" class="node">
<title>sel</title>
<path fill="#dde7f7" stroke="#34344a" d="M278,-499C278,-499 146,-499 146,-499 140,-499 134,-493 134,-487 134,-487 134,-475 134,-475 134,-469 140,-463 146,-463 146,-463 278,-463 278,-463 284,-463 290,-469 290,-475 290,-475 290,-487 290,-487 290,-493 284,-499 278,-499"/>
<text text-anchor="middle" x="212" y="-478.2" font-family="Helvetica,sans-Serif" font-size="11.00">select Local Ollama → model</text>
</g>
<!-- pick&#45;&gt;sel -->
<g id="edge2" class="edge">
<title>pick&#45;&gt;sel</title>
<path fill="none" stroke="#5a5a72" d="M148,-539.87C160.05,-528.98 173.82,-516.52 185.5,-505.97"/>
<polygon fill="#5a5a72" stroke="#5a5a72" points="188.13,-508.31 193.19,-499 183.43,-503.12 188.13,-508.31"/>
</g>
<!-- s1 -->
<g id="node5" class="node">
<title>s1</title>
<path fill="#e7f7ee" stroke="#34344a" d="M307.5,-422C307.5,-422 176.5,-422 176.5,-422 170.5,-422 164.5,-416 164.5,-410 164.5,-410 164.5,-398 164.5,-398 164.5,-392 170.5,-386 176.5,-386 176.5,-386 307.5,-386 307.5,-386 313.5,-386 319.5,-392 319.5,-398 319.5,-398 319.5,-410 319.5,-410 319.5,-416 313.5,-422 307.5,-422"/>
<text text-anchor="middle" x="242" y="-407.2" font-family="Helvetica,sans-Serif" font-size="11.00">① switch live agent</text>
<text text-anchor="middle" x="242" y="-395.2" font-family="Helvetica,sans-Serif" font-size="11.00">next prompt uses new model</text>
</g>
<!-- sel&#45;&gt;s1 -->
<g id="edge3" class="edge">
<title>sel&#45;&gt;s1</title>
<path fill="none" stroke="#5a5a72" d="M218.81,-462.98C222.5,-453.75 227.15,-442.12 231.32,-431.71"/>
<polygon fill="#5a5a72" stroke="#5a5a72" points="234.65,-432.8 235.12,-422.21 228.15,-430.2 234.65,-432.8"/>
</g>
<!-- s1&#45;&gt;v1 -->
<g id="edge7" class="edge">
<title>s1&#45;&gt;v1</title>
<path fill="none" stroke="#1f8b5a" d="M218.94,-385.97C204.49,-374.22 186.49,-357.43 175,-339 155.58,-307.84 128.11,-206.91 114.81,-155.19"/>
<polygon fill="#1f8b5a" stroke="#1f8b5a" points="118.14,-154.06 112.28,-145.24 111.36,-155.79 118.14,-154.06"/>
<text text-anchor="middle" x="186" y="-277" font-family="Helvetica,sans-Serif" font-size="10.00">future requests</text>
</g>
<!-- s2 -->
<g id="node6" class="node">
<title>s2</title>
<polygon fill="#fff7d6" stroke="#34344a" points="394.5,-339 183.5,-339 183.5,-303 400.5,-303 400.5,-333 394.5,-339"/>
<polyline fill="none" stroke="#34344a" points="394.5,-339 394.5,-333 "/>
<polyline fill="none" stroke="#34344a" points="400.5,-333 394.5,-333 "/>
<text text-anchor="middle" x="292" y="-324.2" font-family="Helvetica,sans-Serif" font-size="11.00">② persist to config.yaml (default)</text>
<text text-anchor="middle" x="292" y="-312.2" font-family="Helvetica,sans-Serif" font-size="11.00">model.default + custom_providers[].model</text>
</g>
<!-- s1&#45;&gt;s2 -->
<g id="edge4" class="edge">
<title>s1&#45;&gt;s2</title>
<path fill="none" stroke="#5a5a72" d="M252.6,-385.82C259.43,-374.76 268.43,-360.18 276.11,-347.75"/>
<polygon fill="#5a5a72" stroke="#5a5a72" points="279.14,-349.5 281.41,-339.15 273.18,-345.82 279.14,-349.5"/>
</g>
<!-- s3 -->
<g id="node7" class="node">
<title>s3</title>
<path fill="#e7f7ee" stroke="#34344a" d="M348.5,-256C348.5,-256 235.5,-256 235.5,-256 229.5,-256 223.5,-250 223.5,-244 223.5,-244 223.5,-232 223.5,-232 223.5,-226 229.5,-220 235.5,-220 235.5,-220 348.5,-220 348.5,-220 354.5,-220 360.5,-226 360.5,-232 360.5,-232 360.5,-244 360.5,-244 360.5,-250 354.5,-256 348.5,-256"/>
<text text-anchor="middle" x="292" y="-241.2" font-family="Helvetica,sans-Serif" font-size="11.00">③ unload previous model</text>
<text text-anchor="middle" x="292" y="-229.2" font-family="Helvetica,sans-Serif" font-size="11.00">best&#45;effort, native /api</text>
</g>
<!-- s2&#45;&gt;s3 -->
<g id="edge5" class="edge">
<title>s2&#45;&gt;s3</title>
<path fill="none" stroke="#5a5a72" d="M292,-302.82C292,-292.19 292,-278.31 292,-266.2"/>
<polygon fill="#5a5a72" stroke="#5a5a72" points="295.5,-266.15 292,-256.15 288.5,-266.15 295.5,-266.15"/>
</g>
<!-- s3&#45;&gt;root -->
<g id="edge8" class="edge">
<title>s3&#45;&gt;root</title>
<path fill="none" stroke="#1f8b5a" stroke-dasharray="5,2" d="M291.85,-219.84C291.7,-202.72 291.46,-176.05 291.28,-155.19"/>
<polygon fill="#1f8b5a" stroke="#1f8b5a" points="294.78,-155.15 291.19,-145.18 287.78,-155.21 294.78,-155.15"/>
<text text-anchor="middle" x="318.5" y="-194" font-family="Helvetica,sans-Serif" font-size="10.00">frees VRAM</text>
</g>
<!-- s4 -->
<g id="node8" class="node">
<title>s4</title>
<path fill="#e7f7ee" stroke="#34344a" d="M556,-145C556,-145 406,-145 406,-145 400,-145 394,-139 394,-133 394,-133 394,-113 394,-113 394,-107 400,-101 406,-101 406,-101 556,-101 556,-101 562,-101 568,-107 568,-113 568,-113 568,-133 568,-133 568,-139 562,-145 556,-145"/>
<text text-anchor="middle" x="481" y="-132.2" font-family="Helvetica,sans-Serif" font-size="11.00">④ print ✓ Model switched</text>
<text text-anchor="middle" x="481" y="-120.2" font-family="Helvetica,sans-Serif" font-size="11.00">▶ Now answering with: &lt;model&gt;</text>
<text text-anchor="middle" x="481" y="-108.2" font-family="Helvetica,sans-Serif" font-size="11.00">+ refresh status bar</text>
</g>
<!-- s3&#45;&gt;s4 -->
<g id="edge6" class="edge">
<title>s3&#45;&gt;s4</title>
<path fill="none" stroke="#5a5a72" d="M323.37,-219.9C342.24,-209.48 366.66,-195.76 388,-183 405.17,-172.73 423.84,-161 439.91,-150.72"/>
<polygon fill="#5a5a72" stroke="#5a5a72" points="442.03,-153.53 448.55,-145.18 438.25,-147.63 442.03,-153.53"/>
</g>
<!-- fixes -->
<g id="node10" class="node">
<title>fixes</title>
<path fill="#f1f4fb" stroke="#9aa7bd" d="M589.5,-60C589.5,-60 372.5,-60 372.5,-60 366.5,-60 360.5,-54 360.5,-48 360.5,-48 360.5,-16 360.5,-16 360.5,-10 366.5,-4 372.5,-4 372.5,-4 589.5,-4 589.5,-4 595.5,-4 601.5,-10 601.5,-16 601.5,-16 601.5,-48 601.5,-48 601.5,-54 595.5,-60 589.5,-60"/>
<path fill="none" stroke="#9aa7bd" d="M593.5,-64C593.5,-64 368.5,-64 368.5,-64 362.5,-64 356.5,-58 356.5,-52 356.5,-52 356.5,-12 356.5,-12 356.5,-6 362.5,0 368.5,0 368.5,0 593.5,0 593.5,0 599.5,0 605.5,-6 605.5,-12 605.5,-12 605.5,-52 605.5,-52 605.5,-58 599.5,-64 593.5,-64"/>
<text text-anchor="middle" x="481" y="-47.2" font-family="Helvetica,sans-Serif" font-size="11.00">fork fixes baked in</text>
<text text-anchor="middle" x="481" y="-35.2" font-family="Helvetica,sans-Serif" font-size="11.00">• stop per&#45;turn re&#45;resolve reverting pick</text>
<text text-anchor="middle" x="481" y="-23.2" font-family="Helvetica,sans-Serif" font-size="11.00">• show active model in status bar</text>
<text text-anchor="middle" x="481" y="-11.2" font-family="Helvetica,sans-Serif" font-size="11.00">• OLLAMA_SCHED_SPREAD multi&#45;GPU split</text>
</g>
<!-- s4&#45;&gt;fixes -->
<g id="edge10" class="edge">
<title>s4&#45;&gt;fixes</title>
<path fill="none" stroke="#5a5a72" stroke-dasharray="1,5" d="M481,-100.91C481,-92.92 481,-83.52 481,-74.3"/>
<polygon fill="#5a5a72" stroke="#5a5a72" points="484.5,-74.06 481,-64.06 477.5,-74.06 484.5,-74.06"/>
</g>
<!-- byname -->
<g id="node9" class="node">
<title>byname</title>
<path fill="#eef1f7" stroke="#34344a" d="M485.5,-503C485.5,-503 320.5,-503 320.5,-503 314.5,-503 308.5,-497 308.5,-491 308.5,-491 308.5,-471 308.5,-471 308.5,-465 314.5,-459 320.5,-459 320.5,-459 485.5,-459 485.5,-459 491.5,-459 497.5,-465 497.5,-471 497.5,-471 497.5,-491 497.5,-491 497.5,-497 491.5,-503 485.5,-503"/>
<text text-anchor="middle" x="403" y="-490.2" font-family="Helvetica,sans-Serif" font-size="11.00">by name (no menu)</text>
<text text-anchor="middle" x="403" y="-478.2" font-family="Helvetica,sans-Serif" font-size="11.00">/model qwen3:14b &#160;&#160;&#160;&#160;&#160;&#160;&#160;&#160;&#160;&#160;(session)</text>
<text text-anchor="middle" x="403" y="-466.2" font-family="Helvetica,sans-Serif" font-size="11.00">/model qwen3:14b &#45;&#45;global &#160;(persist)</text>
</g>
<!-- byname&#45;&gt;s1 -->
<g id="edge9" class="edge">
<title>byname&#45;&gt;s1</title>
<path fill="none" stroke="#5a5a72" stroke-dasharray="5,2" d="M357.72,-458.91C335.83,-448.71 309.61,-436.5 287.67,-426.27"/>
<polygon fill="#5a5a72" stroke="#5a5a72" points="289.09,-423.08 278.55,-422.03 286.14,-429.42 289.09,-423.08"/>
</g>
</g>
</svg>
